<svg width="31" height="32" viewBox="0 0 31 32" fill="none" xmlns="http://www.w3.org/2000/svg">
<path d="M24.358 18.951C24.358 25.401 19.129 30.631 12.679 30.631C6.229 30.631 1 25.401 1 18.951V12.249H24.358V18.951Z" stroke="#EE7A19" stroke-width="2" stroke-linecap="round" stroke-linejoin="round"/>
<path d="M24.3587 12.249C25.6968 12.249 26.98 12.7805 27.9261 13.7266C28.8722 14.6728 29.4037 15.956 29.4037 17.294C29.4037 18.632 28.8722 19.9152 27.9261 20.8614C26.98 21.8075 25.6968 22.339 24.3587 22.339H23.8587M21.3297 1C21.3297 3.28007 20.424 5.46675 18.8117 7.079C17.1995 8.69125 15.0128 9.597 12.7327 9.597H6.76074C6.76074 7.31693 7.6665 5.13025 9.27875 3.518C10.891 1.90575 13.0777 1 15.3577 1H21.3297Z" stroke="#EE7A19" stroke-width="2" stroke-linecap="round" stroke-linejoin="round"/>
</svg>
