<svg width="25" height="25" viewBox="0 0 25 25" fill="none" xmlns="http://www.w3.org/2000/svg">
<path d="M15.1262 9.87395C14.6435 9.39111 14.0704 9.0081 13.4397 8.74678C12.8089 8.48546 12.1328 8.35096 11.45 8.35096C10.7673 8.35096 10.0912 8.48546 9.46044 8.74678C8.82967 9.0081 8.25657 9.39111 7.77387 9.87395L2.52218 15.1268C1.5474 16.1017 0.999856 17.4239 1 18.8025C1.00014 20.1811 1.54796 21.5032 2.52295 22.4779C3.49793 23.4526 4.82021 24.0001 6.1989 24C7.57759 23.9999 8.89976 23.4521 9.87454 22.4772L10.3667 22.011M9.87454 15.1268C10.3572 15.6097 10.9303 15.9927 11.5611 16.254C12.1919 16.5153 12.868 16.6498 13.5507 16.6498C14.2335 16.6498 14.9096 16.5153 15.5403 16.254C16.1711 15.9927 16.7442 15.6097 17.2269 15.1268L22.4771 9.87395C23.452 8.89923 23.9999 7.57716 24 6.19856C24.0001 4.81996 23.4526 3.49776 22.4778 2.52285C21.503 1.54793 20.1809 1.00014 18.8022 1C17.4235 0.999856 16.1012 1.54736 15.1262 2.52208L13.55 3.99552" stroke="white" stroke-width="2" stroke-linecap="round" stroke-linejoin="round"/>
</svg>
