<svg width="91" height="116" viewBox="0 0 91 116" fill="none" xmlns="http://www.w3.org/2000/svg">
<path opacity="0.9" d="M88.5751 64.5716C90.1278 66.1254 91 68.2325 91 70.4296C91 72.6268 90.1278 74.7339 88.5751 76.2877L51.3055 113.574C49.7523 115.127 47.6461 116 45.45 116C43.2539 116 41.1477 115.127 39.5945 113.574L2.32489 76.2877C0.816228 74.725 -0.0185606 72.632 0.000309587 70.4595C0.0191798 68.287 0.890202 66.2088 2.42578 64.6725C3.96135 63.1362 6.03862 62.2648 8.21017 62.2459C10.3817 62.2271 12.4738 63.0622 14.0358 64.5716L37.1679 87.0013V8.28584C37.1679 6.0883 38.0404 3.98076 39.5936 2.42687C41.1468 0.87297 43.2534 0 45.45 0C47.6466 0 49.7531 0.87297 51.3063 2.42687C52.8596 3.98076 53.7321 6.0883 53.7321 8.28584V87.0013L76.8642 64.5716C78.4173 63.0182 80.5235 62.1456 82.7196 62.1456C84.9158 62.1456 87.022 63.0182 88.5751 64.5716Z" fill="#9F9F9F"/>
</svg>
