<svg width="153" height="66" viewBox="0 0 153 66" fill="none" xmlns="http://www.w3.org/2000/svg">
<path d="M46.4019 40.5125V43.057C42.0176 47.9371 37.9856 51.9561 34.3059 55.1139C30.6523 58.2977 27.077 60.7378 23.58 62.4341C20.0829 64.1565 16.7034 65.0177 13.4412 65.0177C10.6227 65.0177 8.19569 64.4567 6.16011 63.3345C4.15062 62.2123 2.62394 60.5682 1.58005 58.4021C0.562264 56.2621 0.053369 53.7177 0.053369 50.7687C0.053369 48.446 0.418729 45.9929 1.14945 43.4093C1.90627 40.7996 2.9893 38.1768 4.39855 35.541C5.8078 32.8791 7.53021 30.1389 9.56579 27.3204C11.6275 24.5019 14.0415 21.5399 16.8078 18.4343C19.6784 15.2243 22.51 12.458 25.3024 10.1354C28.0948 7.78665 30.6262 5.9468 32.8967 4.61584C35.1671 3.28489 37.2679 2.2932 39.1991 1.64077C41.1564 0.988338 42.7744 0.662124 44.0532 0.662124C45.3581 0.662124 46.4672 0.97529 47.3806 1.60162C48.294 2.22795 48.9986 3.14135 49.4945 4.34182C49.9903 5.54229 50.2382 6.92544 50.2382 8.49127C50.2382 11.4403 49.2335 14.7285 47.224 18.356C45.2145 21.9574 42.7092 25.4414 39.708 28.8079C36.7068 32.1745 33.8362 34.9277 31.096 37.0677C28.3818 39.1815 26.4246 40.2385 25.2241 40.2385C24.4151 40.2385 23.6583 39.9253 22.9536 39.299C22.2751 38.6466 21.9358 37.9158 21.9358 37.1068C21.9358 35.6193 22.7188 33.8186 24.2846 31.7047C25.8765 29.5908 27.5989 27.6596 29.4518 25.9111C31.3308 24.1365 32.453 23.2492 32.8184 23.2492C33.001 23.2492 33.0924 23.3275 33.0924 23.4841C33.0924 23.719 32.9489 24.1235 32.6618 24.6976C32.4008 25.2718 32.2703 25.6241 32.2703 25.7546C32.2703 25.9633 32.3486 26.0677 32.5052 26.0677C32.9489 26.0677 34.2276 24.8803 36.3415 22.5055C38.4554 20.1306 40.3865 17.5209 42.1351 14.6763C43.9097 11.8056 44.797 9.45687 44.797 7.63007C44.797 6.87325 44.6273 6.29911 44.2881 5.90765C43.9749 5.4901 43.4921 5.28132 42.8397 5.28132C41.0129 5.28132 38.2335 6.76886 34.5016 9.74394C30.7958 12.6929 26.9856 16.464 23.0711 21.0571C19.1826 25.6241 15.9335 30.3477 13.3238 35.2278C10.7141 40.108 9.4092 44.401 9.4092 48.1068C9.4092 50.2467 9.72237 52.0344 10.3487 53.4697C11.0011 54.9051 11.9406 56.0142 13.1672 56.7971C14.4199 57.5801 15.9204 57.9715 17.669 57.9715C21.453 57.9715 25.746 56.497 30.5479 53.548C35.3498 50.5991 40.6345 46.2539 46.4019 40.5125ZM71.2595 40.5908V43.2136C69.5371 44.7794 68.1539 45.8233 67.1101 46.3452C66.0662 46.8672 64.5656 47.0759 62.6083 46.9716C59.2157 50.9905 56.2275 53 53.6439 53C52.1825 53 50.8515 52.5172 49.651 51.5516C48.4506 50.586 47.485 49.2681 46.7543 47.5979C46.0496 45.9277 45.6973 44.0617 45.6973 42C45.6973 40.3298 46.2454 38.4769 47.3414 36.4413C48.4636 34.4058 49.899 32.5137 51.6475 30.7652C53.4221 28.9906 55.3141 27.5683 57.3236 26.4983C59.3331 25.4022 61.199 24.8542 62.9215 24.8542C64.148 24.8542 65.1136 25.0499 65.8182 25.4414C66.5229 25.8067 66.8752 26.3287 66.8752 27.0072C66.8752 27.5292 66.5751 28.1294 65.9748 28.8079C66.9665 29.0167 67.645 29.369 68.0104 29.8649C68.3758 30.3346 68.5584 31.2089 68.5584 32.4876C68.5584 33.7403 68.2583 35.3192 67.6581 37.2243C67.084 39.1294 66.288 40.917 65.2702 42.5872L65.9748 43.2919H66.562C67.0057 43.2919 67.4363 43.1875 67.8538 42.9787C68.2975 42.7438 68.6889 42.5089 69.0282 42.2741C69.3675 42.0131 70.1112 41.452 71.2595 40.5908ZM63.1955 30.2955C61.0294 31.6003 59.1765 32.7877 57.6368 33.8577C56.097 34.9016 54.7922 35.9716 53.7222 37.0677C52.6522 38.1377 51.9345 39.2207 51.5692 40.3168C50.9168 43.2397 50.5905 44.8185 50.5905 45.0534C50.5905 46.7758 51.791 47.637 54.192 47.637C55.3141 47.637 57.1931 46.6714 59.8289 44.7402C59.3853 43.5137 59.1635 42.3393 59.1635 41.2171C59.1635 39.573 59.5027 37.9028 60.1813 36.2065C60.8598 34.4841 61.8645 32.5137 63.1955 30.2955ZM94.7861 40.7474V43.3701C91.9937 46.1103 89.7102 48.2373 87.9356 49.7509C86.1871 51.2645 84.543 52.4389 83.0032 53.274C81.4896 54.1091 80.0021 54.5267 78.5406 54.5267C77.1053 54.5267 75.7874 53.9656 74.5869 52.8434C73.3864 51.6951 72.4469 50.2076 71.7684 48.3808C71.0899 46.5279 70.7506 44.5706 70.7506 42.5089C70.7506 40.7343 71.1421 39.1555 71.925 37.7723C72.7079 36.3892 74.2215 34.6015 76.4659 32.4093C79.1278 29.7996 81.594 27.7901 83.8644 26.3809C86.161 24.9455 87.9617 24.2279 89.2666 24.2279C90.206 24.2279 91.002 24.5541 91.6544 25.2065C92.3069 25.8589 92.6331 26.681 92.6331 27.6727C92.6331 28.5078 92.2025 29.6952 91.3413 31.235C90.4801 32.7747 89.5145 34.1187 88.4445 35.267C87.3745 36.3892 86.5263 36.9502 85.9 36.9502C85.2215 36.9502 84.8822 36.5849 84.8822 35.8542C84.9083 35.6454 84.9214 35.4497 84.9214 35.267C84.9475 35.0843 84.9605 34.9016 84.9605 34.7189C84.9605 34.4058 84.8431 34.2361 84.6082 34.21C84.3994 34.1578 84.1385 34.2492 83.8253 34.4841C81.2156 36.3109 79.4279 37.6027 78.4623 38.3595C77.4967 39.0902 76.7269 39.834 76.1527 40.5908C75.6047 41.3476 75.3307 42.1436 75.3307 42.9787C75.3307 44.5184 75.8265 45.7711 76.8182 46.7367C77.8099 47.7023 79.1017 48.1851 80.6936 48.1851C82.3378 48.1851 84.3081 47.5587 86.6046 46.3061C88.9273 45.0273 91.6544 43.1744 94.7861 40.7474ZM119.8 40.5908V43.2136C118.078 44.7794 116.695 45.8233 115.651 46.3452C114.607 46.8672 113.106 47.0759 111.149 46.9716C107.756 50.9905 104.768 53 102.185 53C100.723 53 99.3923 52.5172 98.1918 51.5516C96.9913 50.586 96.0257 49.2681 95.295 47.5979C94.5904 45.9277 94.2381 44.0617 94.2381 42C94.2381 40.3298 94.7861 38.4769 95.8822 36.4413C97.0044 34.4058 98.4397 32.5137 100.188 30.7652C101.963 28.9906 103.855 27.5683 105.864 26.4983C107.874 25.4022 109.74 24.8542 111.462 24.8542C112.689 24.8542 113.654 25.0499 114.359 25.4414C115.064 25.8067 115.416 26.3287 115.416 27.0072C115.416 27.5292 115.116 28.1294 114.516 28.8079C115.507 29.0167 116.186 29.369 116.551 29.8649C116.917 30.3346 117.099 31.2089 117.099 32.4876C117.099 33.7403 116.799 35.3192 116.199 37.2243C115.625 39.1294 114.829 40.917 113.811 42.5872L114.516 43.2919H115.103C115.546 43.2919 115.977 43.1875 116.395 42.9787C116.838 42.7438 117.23 42.5089 117.569 42.2741C117.908 42.0131 118.652 41.452 119.8 40.5908ZM111.736 30.2955C109.57 31.6003 107.717 32.7877 106.178 33.8577C104.638 34.9016 103.333 35.9716 102.263 37.0677C101.193 38.1377 100.475 39.2207 100.11 40.3168C99.4575 43.2397 99.1313 44.8185 99.1313 45.0534C99.1313 46.7758 100.332 47.637 102.733 47.637C103.855 47.637 105.734 46.6714 108.37 44.7402C107.926 43.5137 107.704 42.3393 107.704 41.2171C107.704 39.573 108.043 37.9028 108.722 36.2065C109.401 34.4841 110.405 32.5137 111.736 30.2955ZM124.341 33.662C128.308 30.0606 132.157 27.3856 135.889 25.6371C139.621 23.8886 142.505 23.0144 144.54 23.0144C145.088 23.0144 145.597 23.2492 146.067 23.719C146.537 24.1626 146.902 24.6846 147.163 25.2848C147.45 25.885 147.594 26.3287 147.594 26.6158C147.594 27.0855 147.411 27.4378 147.046 27.6727C146.68 27.8815 146.041 28.1424 145.128 28.4556C145.31 28.8732 145.545 29.4082 145.832 30.0606C146.119 30.713 146.341 31.248 146.498 31.6656C146.654 32.057 146.733 32.4093 146.733 32.7225C146.733 33.3488 146.093 34.5232 144.814 36.2456C143.562 37.9419 142.674 39.1946 142.152 40.0036C141.657 40.8126 141.409 41.8043 141.409 42.9787C141.409 44.9099 142.296 45.8755 144.071 45.8755C145.897 45.8755 148.755 44.1661 152.644 40.7474V43.1353C146.041 50.4686 141.317 54.1352 138.473 54.1352C137.455 54.1352 136.724 53.796 136.281 53.1174C135.863 52.465 135.654 51.4864 135.654 50.1815C135.654 48.1198 136.398 45.1317 137.886 41.2171C134.075 45.4449 131.244 48.4591 129.391 50.2598C127.538 52.0344 126.011 52.9217 124.811 52.9217C124.237 52.9217 123.519 52.4259 122.658 51.4342C121.797 50.4425 121.027 49.1637 120.348 47.5979C119.696 46.006 119.37 44.3618 119.37 42.6655C119.37 41.439 119.487 40.4212 119.722 39.6122C119.957 38.777 120.414 37.9289 121.092 37.0677C121.771 36.2065 122.854 35.0712 124.341 33.662ZM143.092 29.356C136.307 32.4615 131.466 35.0973 128.569 37.2634C125.698 39.4295 124.263 41.6608 124.263 43.9573C124.263 44.7924 124.406 45.484 124.693 46.0321C124.981 46.554 125.372 46.815 125.868 46.815C126.155 46.815 126.664 46.6323 127.395 46.2669C130.135 44.6489 132.64 42.5481 134.911 39.9645C137.181 37.3547 139.908 33.8186 143.092 29.356Z" fill="#232019"/>
</svg>
