<svg width="90" height="38" viewBox="0 0 90 38" fill="none" xmlns="http://www.w3.org/2000/svg">
<path d="M27.6581 23.756V25.2321C25.1147 28.063 22.7758 30.3944 20.6412 32.2263C18.5217 34.0732 16.4477 35.4887 14.419 36.4727C12.3904 37.4719 10.4299 37.9715 8.53755 37.9715C6.90254 37.9715 5.49462 37.646 4.31378 36.995C3.14808 36.3441 2.26245 35.3903 1.65689 34.1338C1.06647 32.8924 0.771259 31.4163 0.771259 29.7056C0.771259 28.3582 0.983205 26.9352 1.4071 25.4364C1.84613 23.9225 2.47439 22.4011 3.2919 20.872C4.1094 19.3279 5.10857 17.7383 6.28941 16.1033C7.48539 14.4682 8.88575 12.75 10.4905 10.9484C12.1558 9.08634 13.7983 7.48161 15.4182 6.13424C17.0381 4.77174 18.5066 3.70444 19.8237 2.93235C21.1407 2.16026 22.3594 1.58498 23.4797 1.20651C24.6151 0.828035 25.5538 0.638798 26.2956 0.638798C27.0525 0.638798 27.6959 0.820466 28.2258 1.1838C28.7556 1.54714 29.1644 2.077 29.452 2.77339C29.7397 3.46979 29.8835 4.27215 29.8835 5.18049C29.8835 6.89119 29.3006 8.7987 28.1349 10.903C26.9692 12.9922 25.5159 15.0132 23.7749 16.9662C22.0339 18.9191 20.3687 20.5163 18.7791 21.7577C17.2046 22.9839 16.0692 23.597 15.3728 23.597C14.9035 23.597 14.4645 23.4154 14.0557 23.052C13.6621 22.6736 13.4653 22.2497 13.4653 21.7804C13.4653 20.9174 13.9195 19.8729 14.8278 18.6466C15.7513 17.4203 16.7504 16.3001 17.8253 15.2858C18.9153 14.2563 19.5663 13.7416 19.7782 13.7416C19.8842 13.7416 19.9372 13.787 19.9372 13.8778C19.9372 14.0141 19.8539 14.2487 19.6874 14.5818C19.536 14.9148 19.4603 15.1192 19.4603 15.1949C19.4603 15.316 19.5057 15.3766 19.5966 15.3766C19.8539 15.3766 20.5957 14.6878 21.822 13.3101C23.0483 11.9325 24.1685 10.4186 25.1828 8.76842C26.2123 7.10314 26.727 5.74063 26.727 4.6809C26.727 4.24187 26.6286 3.90882 26.4318 3.68173C26.2501 3.43951 25.9701 3.3184 25.5916 3.3184C24.5319 3.3184 22.9196 4.18132 20.7547 5.90716C18.605 7.61786 16.3947 9.80544 14.1238 12.4699C11.8681 15.1192 9.98332 17.8594 8.46943 20.6904C6.95553 23.5213 6.19858 26.0117 6.19858 28.1614C6.19858 29.4028 6.38025 30.4399 6.74358 31.2725C7.12206 32.1051 7.66706 32.7486 8.37859 33.2027C9.10526 33.6569 9.97575 33.884 10.9901 33.884C13.1852 33.884 15.6756 33.0286 18.4611 31.3179C21.2467 29.6072 24.3124 27.0866 27.6581 23.756ZM42.0779 23.8014V25.3229C41.0788 26.2312 40.2764 26.8368 39.6708 27.1396C39.0653 27.4423 38.1948 27.5635 37.0594 27.5029C35.0913 29.8343 33.3579 31 31.8591 31C31.0114 31 30.2393 30.7199 29.5429 30.1598C28.8465 29.5996 28.2863 28.8351 27.8624 27.8662C27.4537 26.8973 27.2493 25.8149 27.2493 24.6189C27.2493 23.65 27.5672 22.5752 28.2031 21.3943C28.854 20.2135 29.6867 19.1159 30.701 18.1016C31.7305 17.0721 32.828 16.2471 33.9937 15.6264C35.1594 14.9905 36.2419 14.6726 37.241 14.6726C37.9526 14.6726 38.5127 14.7862 38.9215 15.0132C39.3302 15.2252 39.5346 15.528 39.5346 15.9216C39.5346 16.2244 39.3605 16.5726 39.0123 16.9662C39.5876 17.0873 39.9812 17.2917 40.1931 17.5793C40.4051 17.8518 40.5111 18.359 40.5111 19.1008C40.5111 19.8274 40.337 20.7433 39.9888 21.8485C39.6557 22.9536 39.194 23.9907 38.6035 24.9596L39.0123 25.3683H39.3529C39.6103 25.3683 39.8601 25.3077 40.1023 25.1866C40.3597 25.0504 40.5867 24.9141 40.7836 24.7779C40.9804 24.6265 41.4118 24.301 42.0779 23.8014ZM37.4 17.8291C36.1435 18.586 35.0686 19.2749 34.1754 19.8956C33.2822 20.5011 32.5252 21.1218 31.9045 21.7577C31.2839 22.3784 30.8675 23.0066 30.6556 23.6425C30.2771 25.338 30.0879 26.2539 30.0879 26.3902C30.0879 27.3894 30.7843 27.8889 32.1771 27.8889C32.828 27.8889 33.918 27.3288 35.4471 26.2085C35.1897 25.497 35.061 24.8157 35.061 24.1648C35.061 23.211 35.2578 22.2421 35.6514 21.2581C36.0451 20.2589 36.6279 19.1159 37.4 17.8291ZM55.7257 23.8923V25.4137C54.1058 27.0033 52.7812 28.2371 51.7517 29.1152C50.7374 29.9933 49.7837 30.6745 48.8905 31.159C48.0124 31.6434 47.1495 31.8856 46.3017 31.8856C45.4691 31.8856 44.7045 31.5601 44.0082 30.9092C43.3118 30.2431 42.7668 29.3801 42.3731 28.3204C41.9795 27.2455 41.7827 26.1101 41.7827 24.9141C41.7827 23.8847 42.0098 22.9688 42.464 22.1664C42.9182 21.364 43.7962 20.327 45.0982 19.0554C46.6423 17.5415 48.073 16.3758 49.3901 15.5583C50.7223 14.7256 51.7669 14.3093 52.5238 14.3093C53.0688 14.3093 53.5306 14.4985 53.909 14.877C54.2875 15.2555 54.4768 15.7323 54.4768 16.3076C54.4768 16.7921 54.227 17.4809 53.7274 18.3741C53.2278 19.2673 52.6676 20.047 52.0469 20.7131C51.4263 21.364 50.9342 21.6895 50.5709 21.6895C50.1773 21.6895 49.9805 21.4776 49.9805 21.0537C49.9956 20.9326 50.0032 20.819 50.0032 20.7131C50.0183 20.6071 50.0259 20.5011 50.0259 20.3952C50.0259 20.2135 49.9578 20.1151 49.8215 20.0999C49.7004 20.0697 49.549 20.1227 49.3674 20.2589C47.8535 21.3186 46.8164 22.068 46.2563 22.507C45.6962 22.9309 45.2496 23.3624 44.9165 23.8014C44.5986 24.2405 44.4396 24.7022 44.4396 25.1866C44.4396 26.0798 44.7273 26.8065 45.3025 27.3666C45.8778 27.9268 46.6272 28.2069 47.5507 28.2069C48.5044 28.2069 49.6474 27.8435 50.9797 27.1169C52.327 26.375 53.909 25.3002 55.7257 23.8923ZM70.2364 23.8014V25.3229C69.2372 26.2312 68.4349 26.8368 67.8293 27.1396C67.2238 27.4423 66.3533 27.5635 65.2178 27.5029C63.2498 29.8343 61.5164 31 60.0176 31C59.1698 31 58.3977 30.7199 57.7013 30.1598C57.005 29.5996 56.4448 28.8351 56.0209 27.8662C55.6122 26.8973 55.4078 25.8149 55.4078 24.6189C55.4078 23.65 55.7257 22.5752 56.3616 21.3943C57.0125 20.2135 57.8452 19.1159 58.8595 18.1016C59.8889 17.0721 60.9865 16.2471 62.1522 15.6264C63.3179 14.9905 64.4003 14.6726 65.3995 14.6726C66.111 14.6726 66.6712 14.7862 67.0799 15.0132C67.4887 15.2252 67.6931 15.528 67.6931 15.9216C67.6931 16.2244 67.519 16.5726 67.1708 16.9662C67.7461 17.0873 68.1397 17.2917 68.3516 17.5793C68.5636 17.8518 68.6695 18.359 68.6695 19.1008C68.6695 19.8274 68.4954 20.7433 68.1472 21.8485C67.8142 22.9536 67.3524 23.9907 66.762 24.9596L67.1708 25.3683H67.5114C67.7688 25.3683 68.0186 25.3077 68.2608 25.1866C68.5181 25.0504 68.7452 24.9141 68.942 24.7779C69.1388 24.6265 69.5703 24.301 70.2364 23.8014ZM65.5585 17.8291C64.3019 18.586 63.2271 19.2749 62.3339 19.8956C61.4407 20.5011 60.6837 21.1218 60.063 21.7577C59.4423 22.3784 59.026 23.0066 58.8141 23.6425C58.4356 25.338 58.2464 26.2539 58.2464 26.3902C58.2464 27.3894 58.9427 27.8889 60.3355 27.8889C60.9865 27.8889 62.0765 27.3288 63.6055 26.2085C63.3482 25.497 63.2195 24.8157 63.2195 24.1648C63.2195 23.211 63.4163 22.2421 63.8099 21.2581C64.2035 20.2589 64.7864 19.1159 65.5585 17.8291ZM72.8706 19.782C75.1717 17.6928 77.4047 16.1411 79.5696 15.1268C81.7345 14.1125 83.4073 13.6053 84.5882 13.6053C84.9061 13.6053 85.2013 13.7416 85.4738 14.0141C85.7463 14.2714 85.9582 14.5742 86.1096 14.9224C86.2762 15.2706 86.3594 15.528 86.3594 15.6945C86.3594 15.967 86.2534 16.1714 86.0415 16.3076C85.8296 16.4287 85.4586 16.5801 84.9288 16.7618C85.0348 17.004 85.171 17.3144 85.3375 17.6928C85.5041 18.0713 85.6327 18.3817 85.7236 18.6239C85.8144 18.851 85.8598 19.0554 85.8598 19.237C85.8598 19.6004 85.4889 20.2816 84.7471 21.2808C84.0204 22.2648 83.5057 22.9915 83.2029 23.4608C82.9153 23.9301 82.7715 24.5054 82.7715 25.1866C82.7715 26.3069 83.2862 26.8671 84.3157 26.8671C85.3754 26.8671 87.0331 25.8755 89.2888 23.8923V25.2775C85.4586 29.5315 82.7185 31.6585 81.0683 31.6585C80.4779 31.6585 80.054 31.4617 79.7967 31.0681C79.5545 30.6897 79.4333 30.1219 79.4333 29.365C79.4333 28.169 79.8648 26.4356 80.7277 24.1648C78.5174 26.6173 76.8749 28.3658 75.8 29.4104C74.7251 30.4399 73.8395 30.9546 73.1431 30.9546C72.81 30.9546 72.3937 30.6669 71.8941 30.0917C71.3945 29.5164 70.9479 28.7746 70.5543 27.8662C70.1759 26.9428 69.9866 25.989 69.9866 25.005C69.9866 24.2934 70.0547 23.703 70.191 23.2337C70.3272 22.7493 70.5922 22.2572 70.9858 21.7577C71.3794 21.2581 72.0077 20.5995 72.8706 19.782ZM83.7479 17.2841C79.8118 19.0856 77.0035 20.6147 75.3231 21.8712C73.6578 23.1277 72.8252 24.4221 72.8252 25.7543C72.8252 26.2388 72.9084 26.64 73.075 26.9579C73.2415 27.2607 73.4686 27.4121 73.7562 27.4121C73.9228 27.4121 74.218 27.3061 74.6419 27.0941C76.2314 26.1555 77.6848 24.9368 79.0019 23.4381C80.319 21.9242 81.901 19.8729 83.7479 17.2841Z" fill="#D2D2D2"/>
</svg>
