<svg width="165" height="77" viewBox="0 0 165 77" fill="none" xmlns="http://www.w3.org/2000/svg">
<g filter="url(#filter0_d_27_23)">
<path d="M56.4019 42.5125V45.057C52.0176 49.9371 47.9856 53.9561 44.3059 57.1139C40.6523 60.2977 37.077 62.7378 33.58 64.4341C30.0829 66.1565 26.7034 67.0177 23.4412 67.0177C20.6227 67.0177 18.1957 66.4567 16.1601 65.3345C14.1506 64.2123 12.6239 62.5682 11.5801 60.4021C10.5623 58.2621 10.0534 55.7177 10.0534 52.7687C10.0534 50.446 10.4187 47.9929 11.1495 45.4093C11.9063 42.7996 12.9893 40.1768 14.3985 37.541C15.8078 34.8791 17.5302 32.1389 19.5658 29.3204C21.6275 26.5019 24.0415 23.5399 26.8078 20.4343C29.6784 17.2243 32.51 14.458 35.3024 12.1354C38.0948 9.78665 40.6262 7.9468 42.8967 6.61584C45.1671 5.28489 47.2679 4.2932 49.1991 3.64077C51.1564 2.98834 52.7744 2.66212 54.0532 2.66212C55.3581 2.66212 56.4672 2.97529 57.3806 3.60162C58.294 4.22795 58.9986 5.14135 59.4945 6.34182C59.9903 7.54229 60.2382 8.92544 60.2382 10.4913C60.2382 13.4403 59.2335 16.7285 57.224 20.356C55.2145 23.9574 52.7092 27.4414 49.708 30.8079C46.7068 34.1745 43.8362 36.9277 41.096 39.0677C38.3818 41.1815 36.4246 42.2385 35.2241 42.2385C34.4151 42.2385 33.6583 41.9253 32.9536 41.299C32.2751 40.6466 31.9358 39.9158 31.9358 39.1068C31.9358 37.6193 32.7188 35.8186 34.2846 33.7047C35.8765 31.5908 37.5989 29.6596 39.4518 27.9111C41.3308 26.1365 42.453 25.2492 42.8184 25.2492C43.001 25.2492 43.0924 25.3275 43.0924 25.4841C43.0924 25.719 42.9489 26.1235 42.6618 26.6976C42.4008 27.2718 42.2703 27.6241 42.2703 27.7546C42.2703 27.9633 42.3486 28.0677 42.5052 28.0677C42.9489 28.0677 44.2276 26.8803 46.3415 24.5055C48.4554 22.1306 50.3865 19.5209 52.1351 16.6763C53.9097 13.8056 54.797 11.4569 54.797 9.63007C54.797 8.87325 54.6273 8.29911 54.2881 7.90765C53.9749 7.4901 53.4921 7.28132 52.8397 7.28132C51.0129 7.28132 48.2335 8.76886 44.5016 11.7439C40.7958 14.6929 36.9856 18.464 33.0711 23.0571C29.1826 27.6241 25.9335 32.3477 23.3238 37.2278C20.7141 42.108 19.4092 46.401 19.4092 50.1068C19.4092 52.2467 19.7224 54.0344 20.3487 55.4697C21.0011 56.9051 21.9406 58.0142 23.1672 58.7971C24.4199 59.5801 25.9204 59.9715 27.669 59.9715C31.453 59.9715 35.746 58.497 40.5479 55.548C45.3498 52.5991 50.6345 48.2539 56.4019 42.5125ZM81.2595 42.5908V45.2136C79.5371 46.7794 78.1539 47.8233 77.1101 48.3452C76.0662 48.8672 74.5656 49.0759 72.6083 48.9716C69.2157 52.9905 66.2275 55 63.6439 55C62.1825 55 60.8515 54.5172 59.651 53.5516C58.4506 52.586 57.485 51.2681 56.7543 49.5979C56.0496 47.9277 55.6973 46.0617 55.6973 44C55.6973 42.3298 56.2454 40.4769 57.3414 38.4413C58.4636 36.4058 59.899 34.5137 61.6475 32.7652C63.4221 30.9906 65.3141 29.5683 67.3236 28.4983C69.3331 27.4022 71.199 26.8542 72.9215 26.8542C74.148 26.8542 75.1136 27.0499 75.8182 27.4414C76.5229 27.8067 76.8752 28.3287 76.8752 29.0072C76.8752 29.5292 76.5751 30.1294 75.9748 30.8079C76.9665 31.0167 77.645 31.369 78.0104 31.8649C78.3758 32.3346 78.5584 33.2089 78.5584 34.4876C78.5584 35.7403 78.2583 37.3192 77.6581 39.2243C77.084 41.1294 76.288 42.917 75.2702 44.5872L75.9748 45.2919H76.562C77.0057 45.2919 77.4363 45.1875 77.8538 44.9787C78.2975 44.7438 78.6889 44.5089 79.0282 44.2741C79.3675 44.0131 80.1112 43.452 81.2595 42.5908ZM73.1955 32.2955C71.0294 33.6003 69.1765 34.7877 67.6368 35.8577C66.097 36.9016 64.7922 37.9716 63.7222 39.0677C62.6522 40.1377 61.9345 41.2207 61.5692 42.3168C60.9168 45.2397 60.5905 46.8185 60.5905 47.0534C60.5905 48.7758 61.791 49.637 64.192 49.637C65.3141 49.637 67.1931 48.6714 69.8289 46.7402C69.3853 45.5137 69.1635 44.3393 69.1635 43.2171C69.1635 41.573 69.5027 39.9028 70.1813 38.2065C70.8598 36.4841 71.8645 34.5137 73.1955 32.2955ZM104.786 42.7474V45.3701C101.994 48.1103 99.7102 50.2373 97.9356 51.7509C96.1871 53.2645 94.543 54.4389 93.0032 55.274C91.4896 56.1091 90.0021 56.5267 88.5406 56.5267C87.1053 56.5267 85.7874 55.9656 84.5869 54.8434C83.3864 53.6951 82.4469 52.2076 81.7684 50.3808C81.0899 48.5279 80.7506 46.5706 80.7506 44.5089C80.7506 42.7343 81.1421 41.1555 81.925 39.7723C82.7079 38.3892 84.2215 36.6015 86.4659 34.4093C89.1278 31.7996 91.594 29.7901 93.8644 28.3809C96.161 26.9455 97.9617 26.2279 99.2666 26.2279C100.206 26.2279 101.002 26.5541 101.654 27.2065C102.307 27.8589 102.633 28.681 102.633 29.6727C102.633 30.5078 102.202 31.6952 101.341 33.235C100.48 34.7747 99.5145 36.1187 98.4445 37.267C97.3745 38.3892 96.5263 38.9502 95.9 38.9502C95.2215 38.9502 94.8822 38.5849 94.8822 37.8542C94.9083 37.6454 94.9214 37.4497 94.9214 37.267C94.9475 37.0843 94.9605 36.9016 94.9605 36.7189C94.9605 36.4058 94.8431 36.2361 94.6082 36.21C94.3994 36.1578 94.1385 36.2492 93.8253 36.4841C91.2156 38.3109 89.4279 39.6027 88.4623 40.3595C87.4967 41.0902 86.7269 41.834 86.1527 42.5908C85.6047 43.3476 85.3307 44.1436 85.3307 44.9787C85.3307 46.5184 85.8265 47.7711 86.8182 48.7367C87.8099 49.7023 89.1017 50.1851 90.6936 50.1851C92.3378 50.1851 94.3081 49.5587 96.6046 48.3061C98.9273 47.0273 101.654 45.1744 104.786 42.7474ZM129.8 42.5908V45.2136C128.078 46.7794 126.695 47.8233 125.651 48.3452C124.607 48.8672 123.106 49.0759 121.149 48.9716C117.756 52.9905 114.768 55 112.185 55C110.723 55 109.392 54.5172 108.192 53.5516C106.991 52.586 106.026 51.2681 105.295 49.5979C104.59 47.9277 104.238 46.0617 104.238 44C104.238 42.3298 104.786 40.4769 105.882 38.4413C107.004 36.4058 108.44 34.5137 110.188 32.7652C111.963 30.9906 113.855 29.5683 115.864 28.4983C117.874 27.4022 119.74 26.8542 121.462 26.8542C122.689 26.8542 123.654 27.0499 124.359 27.4414C125.064 27.8067 125.416 28.3287 125.416 29.0072C125.416 29.5292 125.116 30.1294 124.516 30.8079C125.507 31.0167 126.186 31.369 126.551 31.8649C126.917 32.3346 127.099 33.2089 127.099 34.4876C127.099 35.7403 126.799 37.3192 126.199 39.2243C125.625 41.1294 124.829 42.917 123.811 44.5872L124.516 45.2919H125.103C125.546 45.2919 125.977 45.1875 126.395 44.9787C126.838 44.7438 127.23 44.5089 127.569 44.2741C127.908 44.0131 128.652 43.452 129.8 42.5908ZM121.736 32.2955C119.57 33.6003 117.717 34.7877 116.178 35.8577C114.638 36.9016 113.333 37.9716 112.263 39.0677C111.193 40.1377 110.475 41.2207 110.11 42.3168C109.457 45.2397 109.131 46.8185 109.131 47.0534C109.131 48.7758 110.332 49.637 112.733 49.637C113.855 49.637 115.734 48.6714 118.37 46.7402C117.926 45.5137 117.704 44.3393 117.704 43.2171C117.704 41.573 118.043 39.9028 118.722 38.2065C119.401 36.4841 120.405 34.5137 121.736 32.2955ZM134.341 35.662C138.308 32.0606 142.157 29.3856 145.889 27.6371C149.621 25.8886 152.505 25.0144 154.54 25.0144C155.088 25.0144 155.597 25.2492 156.067 25.719C156.537 26.1626 156.902 26.6846 157.163 27.2848C157.45 27.885 157.594 28.3287 157.594 28.6158C157.594 29.0855 157.411 29.4378 157.046 29.6727C156.68 29.8815 156.041 30.1424 155.128 30.4556C155.31 30.8732 155.545 31.4082 155.832 32.0606C156.119 32.713 156.341 33.248 156.498 33.6656C156.654 34.057 156.733 34.4093 156.733 34.7225C156.733 35.3488 156.093 36.5232 154.814 38.2456C153.562 39.9419 152.674 41.1946 152.152 42.0036C151.657 42.8126 151.409 43.8043 151.409 44.9787C151.409 46.9099 152.296 47.8755 154.071 47.8755C155.897 47.8755 158.755 46.1661 162.644 42.7474V45.1353C156.041 52.4686 151.317 56.1352 148.473 56.1352C147.455 56.1352 146.724 55.796 146.281 55.1174C145.863 54.465 145.654 53.4864 145.654 52.1815C145.654 50.1198 146.398 47.1317 147.886 43.2171C144.075 47.4449 141.244 50.4591 139.391 52.2598C137.538 54.0344 136.011 54.9217 134.811 54.9217C134.237 54.9217 133.519 54.4259 132.658 53.4342C131.797 52.4425 131.027 51.1637 130.348 49.5979C129.696 48.006 129.37 46.3618 129.37 44.6655C129.37 43.439 129.487 42.4212 129.722 41.6122C129.957 40.777 130.414 39.9289 131.092 39.0677C131.771 38.2065 132.854 37.0712 134.341 35.662ZM153.092 31.356C146.307 34.4615 141.466 37.0973 138.569 39.2634C135.698 41.4295 134.263 43.6608 134.263 45.9573C134.263 46.7924 134.406 47.484 134.693 48.0321C134.981 48.554 135.372 48.815 135.868 48.815C136.155 48.815 136.664 48.6323 137.395 48.2669C140.135 46.6489 142.64 44.5481 144.911 41.9645C147.181 39.3547 149.908 35.8186 153.092 31.356Z" fill="#C9732C"/>
</g>
<defs>
<filter id="filter0_d_27_23" x="0.253345" y="0.862109" width="164.19" height="75.9557" filterUnits="userSpaceOnUse" color-interpolation-filters="sRGB">
<feFlood flood-opacity="0" result="BackgroundImageFix"/>
<feColorMatrix in="SourceAlpha" type="matrix" values="0 0 0 0 0 0 0 0 0 0 0 0 0 0 0 0 0 0 127 0" result="hardAlpha"/>
<feOffset dx="-4" dy="4"/>
<feGaussianBlur stdDeviation="2.9"/>
<feComposite in2="hardAlpha" operator="out"/>
<feColorMatrix type="matrix" values="0 0 0 0 0 0 0 0 0 0 0 0 0 0 0 0 0 0 0.25 0"/>
<feBlend mode="normal" in2="BackgroundImageFix" result="effect1_dropShadow_27_23"/>
<feBlend mode="normal" in="SourceGraphic" in2="effect1_dropShadow_27_23" result="shape"/>
</filter>
</defs>
</svg>
