<svg width="21" height="22" viewBox="0 0 21 22" fill="none" xmlns="http://www.w3.org/2000/svg">
<path fill-rule="evenodd" clip-rule="evenodd" d="M20.2596 2.95959C20.3836 2.83574 20.482 2.68869 20.5492 2.52681C20.6163 2.36494 20.6509 2.19142 20.6511 2.01617C20.6512 1.84092 20.6167 1.66736 20.5498 1.5054C20.4828 1.34345 20.3846 1.19627 20.2608 1.07227C20.1369 0.94827 19.9899 0.849879 19.828 0.782712C19.6661 0.715546 19.4926 0.680921 19.3173 0.680813C19.1421 0.680705 18.9685 0.715117 18.8066 0.782085C18.6446 0.849052 18.4974 0.947262 18.3734 1.07111L10.3254 9.11919L2.2796 1.07111C2.02917 0.820681 1.68952 0.679993 1.33536 0.679993C0.981198 0.679993 0.641545 0.820681 0.391117 1.07111C0.140689 1.32154 2.63869e-09 1.66119 0 2.01535C-2.63869e-09 2.36951 0.140689 2.70916 0.391117 2.95959L8.4392 11.0054L0.391117 19.0511C0.267117 19.1751 0.168756 19.3223 0.101648 19.4843C0.0345398 19.6463 0 19.82 0 19.9953C0 20.1707 0.0345398 20.3444 0.101648 20.5064C0.168756 20.6684 0.267117 20.8156 0.391117 20.9396C0.641545 21.19 0.981198 21.3307 1.33536 21.3307C1.51072 21.3307 1.68436 21.2962 1.84638 21.2291C2.00839 21.162 2.1556 21.0636 2.2796 20.9396L10.3254 12.8915L18.3734 20.9396C18.6239 21.1897 18.9634 21.3301 19.3173 21.3299C19.6713 21.3297 20.0106 21.1889 20.2608 20.9384C20.5109 20.688 20.6513 20.3485 20.6511 19.9945C20.6508 19.6406 20.51 19.3012 20.2596 19.0511L12.2115 11.0054L20.2596 2.95959Z" fill="black"/>
</svg>
