<svg width="38" height="37" viewBox="0 0 38 37" fill="none" xmlns="http://www.w3.org/2000/svg">
<path fill-rule="evenodd" clip-rule="evenodd" d="M27.4444 0.875977H10.5556C4.72589 0.875977 0 5.3088 0 10.777V26.6185C0 32.0866 4.72589 36.5195 10.5556 36.5195H27.4444C33.2741 36.5195 38 32.0866 38 26.6185V10.777C38 5.3088 33.2741 0.875977 27.4444 0.875977ZM34.3056 26.6185C34.2939 30.1682 31.2288 33.0433 27.4444 33.0542H10.5556C6.77107 33.0433 3.70603 30.1682 3.69444 26.6185V10.777C3.70603 7.22716 6.77107 4.35219 10.5556 4.34132H27.4444C31.2288 4.35219 34.2939 7.22716 34.3056 10.777V26.6185ZM29.0278 11.272C30.1937 11.272 31.1389 10.3854 31.1389 9.29181C31.1389 8.19819 30.1937 7.31162 29.0278 7.31162C27.8618 7.31162 26.9167 8.19819 26.9167 9.29181C26.9167 10.3854 27.8618 11.272 29.0278 11.272ZM19 9.78686C13.7533 9.78686 9.5 13.7764 9.5 18.6977C9.5 23.6191 13.7533 27.6086 19 27.6086C24.2467 27.6086 28.5 23.6191 28.5 18.6977C28.5057 16.3328 27.5065 14.0632 25.7237 12.391C23.9408 10.7187 21.5213 9.78159 19 9.78686ZM13.1944 18.6977C13.1944 21.7053 15.7936 24.1433 19 24.1433C22.2064 24.1433 24.8056 21.7053 24.8056 18.6977C24.8056 15.6902 22.2064 13.2522 19 13.2522C15.7936 13.2522 13.1944 15.6902 13.1944 18.6977Z" fill="#EE7A19"/>
</svg>
