<svg width="46" height="45" viewBox="0 0 46 45" fill="none" xmlns="http://www.w3.org/2000/svg">
<g filter="url(#filter0_d_64_264)">
<path fill-rule="evenodd" clip-rule="evenodd" d="M7.16667 0.875977C5.41776 0.875977 4 2.20582 4 3.84627V33.5492C4 35.1896 5.41776 36.5195 7.16667 36.5195H38.8333C40.5822 36.5195 42 35.1896 42 33.5492V3.84627C42 2.20582 40.5822 0.875977 38.8333 0.875977H7.16667ZM15.6549 8.80215C15.6668 10.6957 14.1557 11.8625 12.3626 11.8541C10.6734 11.8458 9.20087 10.5843 9.20978 8.80494C9.21869 7.13136 10.6288 5.78637 12.4606 5.82536C14.319 5.86435 15.6668 7.14251 15.6549 8.80215ZM23.5905 14.2656H18.2705H18.2675V31.2158H23.8903V30.8203C23.8903 30.068 23.8896 29.3156 23.889 28.5629C23.8873 26.5554 23.8854 24.5457 23.8964 22.5387C23.8993 22.0514 23.923 21.5447 24.0566 21.0795C24.5582 19.3419 26.2239 18.2197 28.0823 18.4956C29.2757 18.6708 30.0653 19.3197 30.3978 20.3752C30.6027 21.035 30.6948 21.7451 30.7037 22.433C30.7277 24.5074 30.7243 26.5819 30.721 28.6565C30.7197 29.3888 30.7184 30.1215 30.7184 30.8538V31.213H36.3591V30.8065C36.3591 29.9114 36.3587 29.0166 36.3581 28.1217C36.357 25.8851 36.3557 23.6484 36.3621 21.411C36.365 20.4001 36.2493 19.4033 35.985 18.4259C35.5902 16.9722 34.7739 15.7692 33.4468 14.9005C32.5057 14.2823 31.4725 13.8841 30.3177 13.8395C30.1862 13.8344 30.0536 13.8277 29.9204 13.8209C29.33 13.791 28.7298 13.7606 28.1653 13.8674C26.5503 14.1709 25.1314 14.8643 24.0596 16.0867C23.935 16.2269 23.8132 16.3692 23.6314 16.5817L23.5905 16.6298V14.2656ZM9.66124 31.2213H15.2573V14.2766H9.66124V31.2213Z" fill="#EE7A19"/>
</g>
<defs>
<filter id="filter0_d_64_264" x="0" y="0.875977" width="46" height="43.6436" filterUnits="userSpaceOnUse" color-interpolation-filters="sRGB">
<feFlood flood-opacity="0" result="BackgroundImageFix"/>
<feColorMatrix in="SourceAlpha" type="matrix" values="0 0 0 0 0 0 0 0 0 0 0 0 0 0 0 0 0 0 127 0" result="hardAlpha"/>
<feOffset dy="4"/>
<feGaussianBlur stdDeviation="2"/>
<feComposite in2="hardAlpha" operator="out"/>
<feColorMatrix type="matrix" values="0 0 0 0 0 0 0 0 0 0 0 0 0 0 0 0 0 0 0.25 0"/>
<feBlend mode="normal" in2="BackgroundImageFix" result="effect1_dropShadow_64_264"/>
<feBlend mode="normal" in="SourceGraphic" in2="effect1_dropShadow_64_264" result="shape"/>
</filter>
</defs>
</svg>
