<svg width="33" height="24" viewBox="0 0 33 24" fill="none" xmlns="http://www.w3.org/2000/svg">
<path d="M2.84002 0H14.44C15.0553 0 15.6454 0.244428 16.0805 0.679512C16.5156 1.1146 16.76 1.7047 16.76 2.32C16.76 2.9353 16.5156 3.5254 16.0805 3.96049C15.6454 4.39557 15.0553 4.64 14.44 4.64H2.84002C2.22472 4.64 1.63462 4.39557 1.19953 3.96049C0.764447 3.5254 0.52002 2.9353 0.52002 2.32C0.52002 1.7047 0.764447 1.1146 1.19953 0.679512C1.63462 0.244428 2.22472 0 2.84002 0ZM19.08 18.56H30.68C31.2953 18.56 31.8854 18.8044 32.3205 19.2395C32.7556 19.6746 33 20.2647 33 20.88C33 21.4953 32.7556 22.0854 32.3205 22.5205C31.8854 22.9556 31.2953 23.2 30.68 23.2H19.08C18.4647 23.2 17.8746 22.9556 17.4395 22.5205C17.0044 22.0854 16.76 21.4953 16.76 20.88C16.76 20.2647 17.0044 19.6746 17.4395 19.2395C17.8746 18.8044 18.4647 18.56 19.08 18.56ZM2.84002 9.28H30.68C31.2953 9.28 31.8854 9.52443 32.3205 9.95951C32.7556 10.3946 33 10.9847 33 11.6C33 12.2153 32.7556 12.8054 32.3205 13.2405C31.8854 13.6756 31.2953 13.92 30.68 13.92H2.84002C2.22472 13.92 1.63462 13.6756 1.19953 13.2405C0.764447 12.8054 0.52002 12.2153 0.52002 11.6C0.52002 10.9847 0.764447 10.3946 1.19953 9.95951C1.63462 9.52443 2.22472 9.28 2.84002 9.28Z" fill="black"/>
</svg>
