<svg width="43" height="29" viewBox="0 0 43 29" fill="none" xmlns="http://www.w3.org/2000/svg">
<path d="M42.1253 5.11413C41.8805 4.26545 41.4023 3.49147 40.7381 2.86924C40.074 2.24701 39.247 1.79823 38.3396 1.56756C34.9751 0.704014 21.5149 0.689957 21.5149 0.689957C21.5149 0.689957 8.0568 0.675898 4.69014 1.50129C3.78332 1.74257 2.95808 2.1977 2.29365 2.82299C1.62922 3.44827 1.14791 4.22271 0.89592 5.07196C0.00859746 8.21688 3.14783e-06 14.7397 3.14783e-06 14.7397C3.14783e-06 14.7397 -0.00859074 21.2946 0.872286 24.4074C1.36644 26.1285 2.81666 27.4881 4.66006 27.952C8.05895 28.8155 21.4827 28.8296 21.4827 28.8296C21.4827 28.8296 34.9429 28.8436 38.3074 28.0202C39.2151 27.79 40.0428 27.3422 40.7087 26.7213C41.3745 26.1003 41.8554 25.3276 42.1038 24.4797C42.9932 21.3368 42.9997 14.816 42.9997 14.816C42.9997 14.816 43.0427 8.25905 42.1253 5.11413ZM17.2093 20.7825L17.2201 8.733L28.4072 14.7678L17.2093 20.7825Z" fill="#EE7A19"/>
</svg>
